<?xml version="1.0" encoding="utf-8"?>
<svg version="1.1" id="Logo" xmlns="http://www.w3.org/2000/svg" xmlns:xlink="http://www.w3.org/1999/xlink" x="0px" y="0px"
	 viewBox="0 0 388.7 158.2" style="enable-background:new 0 0 388.7 158.2;" xml:space="preserve">
<style type="text/css">
	.white{fill:#FFFFFF;}
	.gold{fill:#FABD0F;}
</style>
<g id="name">
	<g id="smith-engineering">
	<title>Smith Engineering</title>
		<g>
			<path class="white" d="M137,63.1l2.5-3c1.8,1.5,3.7,2.4,6,2.4c1.8,0,3-0.8,3-2v-0.1c0-1.2-0.7-1.8-4.1-2.6c-4-1-6.6-2.1-6.6-6v-0.1
				c0-3.5,2.9-5.9,6.9-5.9c2.9,0,5.3,0.9,7.3,2.5l-2.2,3.1c-1.7-1.2-3.5-2-5.2-2c-1.7,0-2.7,0.8-2.7,1.8v0.1c0,1.4,0.9,1.8,4.3,2.7
				c4,1,6.3,2.5,6.3,5.9v0.1c0,3.9-3,6.1-7.2,6.1C142.3,66.2,139.3,65.2,137,63.1"/>
			<polygon class="white" points="157.2,46.2 161.7,46.2 167,54.7 172.4,46.2 176.9,46.2 176.9,65.9 172.7,65.9 172.7,52.8 167,61.4 
				166.9,61.4 161.3,52.9 161.3,65.9 157.2,65.9"/>
			<rect x="182.7" y="46.2" class="white" width="4.2" height="19.7"/>
			<polygon class="white" points="197.3,50 191.3,50 191.3,46.2 207.6,46.2 207.6,50 201.5,50 201.5,65.9 197.3,65.9"/>
			<polygon class="white" points="211.8,46.2 215.9,46.2 215.9,54.1 224.2,54.1 224.2,46.2 228.4,46.2 228.4,65.9 224.2,65.9 
				224.2,57.9 215.9,57.9 215.9,65.9 211.8,65.9"/>
		</g>
		<g>
			<polygon class="white" points="138.3,72.6 153.2,72.6 153.2,76.3 142.5,76.3 142.5,80.5 151.9,80.5 151.9,84.2 142.5,84.2 
				142.5,88.6 153.3,88.6 153.3,92.3 138.3,92.3"/>
			<polygon class="white" points="158,72.6 161.9,72.6 171.4,85 171.4,72.6 175.5,72.6 175.5,92.3 172,92.3 162.1,79.5 162.1,92.3 
				158,92.3"/>
			<path class="white" d="M180.3,82.5L180.3,82.5c0-5.6,4.3-10.2,10.3-10.2c3.5,0,5.7,0.9,7.7,2.7l-2.6,3.2c-1.5-1.3-2.9-2-5.2-2
				c-3.3,0-5.8,2.9-5.8,6.3v0.1c0,3.7,2.5,6.4,6.1,6.4c1.6,0,3.1-0.4,4.2-1.2v-3h-4.5V81h8.5v8.5c-2,1.7-4.8,3.1-8.4,3.1
				C184.5,92.7,180.3,88.3,180.3,82.5"/>
			<rect x="204.3" y="72.6" class="white" width="4.2" height="19.7"/>
			<polygon class="white" points="214.3,72.6 218.1,72.6 227.6,85 227.6,72.6 231.7,72.6 231.7,92.3 228.2,92.3 218.4,79.5 
				218.4,92.3 214.3,92.3"/>
			<polygon class="white" points="237.4,72.6 252.2,72.6 252.2,76.3 241.5,76.3 241.5,80.5 250.9,80.5 250.9,84.2 241.5,84.2 
				241.5,88.6 252.3,88.6 252.3,92.3 237.4,92.3"/>
			<polygon class="white" points="257.1,72.6 271.9,72.6 271.9,76.3 261.2,76.3 261.2,80.5 270.6,80.5 270.6,84.2 261.2,84.2 
				261.2,88.6 272,88.6 272,92.3 257.1,92.3"/>
			<path class="white" d="M276.8,72.6h9c2.5,0,4.4,0.7,5.7,2c1.1,1.1,1.7,2.6,1.7,4.4v0.1c0,3.2-1.8,5.2-4.3,6.1l4.9,7.1h-4.9
				l-4.4-6.4h-3.6v6.4h-4.1V72.6z M285.5,82.2c2.2,0,3.5-1.2,3.5-2.9v-0.1c0-1.9-1.4-2.9-3.6-2.9h-4.5v5.9H285.5z"/>
			<rect x="298.2" y="72.6" class="white" width="4.2" height="19.7"/>
			<polygon class="white" points="308.2,72.6 312,72.6 321.5,85 321.5,72.6 325.6,72.6 325.6,92.3 322.1,92.3 312.3,79.5 312.3,92.3 
				308.2,92.3"/>
			<path class="white" d="M330.4,82.5L330.4,82.5c0-5.6,4.3-10.2,10.3-10.2c3.5,0,5.7,0.9,7.7,2.7l-2.6,3.2c-1.5-1.3-2.9-2-5.2-2
				c-3.3,0-5.8,2.9-5.8,6.3v0.1c0,3.7,2.5,6.4,6.1,6.4c1.6,0,3.1-0.4,4.2-1.2v-3h-4.5V81h8.5v8.5c-2,1.7-4.8,3.1-8.4,3.1
				C334.6,92.7,330.4,88.3,330.4,82.5"/>
		</g>
	</g>
	<g id="queen-university">
	<title>Queen's University</title>
		<path class="white" d="M146.7,111.9c-0.8,0.3-1.6,0.4-2.5,0.4c-4.1,0-6.9-3.1-6.9-6.8v0c0-3.7,2.9-6.8,6.9-6.8
			c4.1,0,6.9,3.1,6.9,6.8v0c0,2-0.9,3.9-2.3,5.1l3.4,3.3v0.1h-3.3L146.7,111.9z M148.8,105.6L148.8,105.6c0-2.7-1.9-4.8-4.6-4.8
			c-2.7,0-4.5,2.1-4.5,4.7v0c0,2.6,1.9,4.8,4.6,4.8C146.9,110.3,148.8,108.2,148.8,105.6"/>
		<path class="white" d="M153.8,108.5v-6.3h2.2v5.7c0,1.6,0.8,2.5,2.2,2.5c1.4,0,2.3-0.9,2.3-2.5v-5.6h2.2v10h-2.2v-1.6
			c-0.7,0.9-1.6,1.8-3.1,1.8C155.1,112.3,153.8,110.8,153.8,108.5"/>
		<path class="white" d="M165.2,107.2L165.2,107.2c0-2.9,2-5.2,4.9-5.2c3.1,0,4.7,2.5,4.7,5.3c0,0.2,0,0.4,0,0.6h-7.4
			c0.2,1.7,1.4,2.6,2.9,2.6c1.1,0,2-0.4,2.7-1.2l1.3,1.1c-1,1.1-2.3,1.9-4.1,1.9C167.4,112.4,165.2,110.3,165.2,107.2 M172.7,106.5
			c-0.2-1.5-1-2.7-2.6-2.7c-1.4,0-2.5,1.1-2.7,2.7H172.7z"/>
		<path class="white" d="M176.8,107.2L176.8,107.2c0-2.9,2-5.2,4.9-5.2c3.1,0,4.7,2.5,4.7,5.3c0,0.2,0,0.4,0,0.6H179
			c0.2,1.7,1.4,2.6,2.9,2.6c1.1,0,2-0.4,2.7-1.2l1.3,1.1c-1,1.1-2.3,1.9-4.1,1.9C179,112.4,176.8,110.3,176.8,107.2 M184.2,106.5
			c-0.2-1.5-1-2.7-2.6-2.7c-1.4,0-2.5,1.1-2.7,2.7H184.2z"/>
		<path class="white" d="M188.9,102.2h2.2v1.6c0.7-0.9,1.6-1.8,3.2-1.8c2.3,0,3.6,1.5,3.6,3.8v6.3h-2.2v-5.7c0-1.6-0.8-2.5-2.2-2.5
			c-1.4,0-2.3,0.9-2.3,2.5v5.6h-2.2V102.2z"/>
		<path class="white" d="M200,105.1c1.1-0.2,1.7-0.8,1.6-1.8h-0.9v-2.5h2.4v2.1c0,2-0.9,2.9-2.8,3.1L200,105.1z"/>
		<path class="white" d="M205.1,110.9l1-1.5c1.1,0.8,2.2,1.2,3.3,1.2c1,0,1.6-0.5,1.6-1.1v0c0-0.8-1.1-1.1-2.3-1.4
			c-1.5-0.4-3.1-1-3.1-2.9v0c0-1.9,1.5-3,3.5-3c1.3,0,2.6,0.4,3.7,1.1l-0.9,1.6c-1-0.6-2-0.9-2.8-0.9c-0.9,0-1.5,0.4-1.5,1v0
			c0,0.7,1.1,1.1,2.3,1.5c1.5,0.5,3.1,1.1,3.1,2.9v0c0,2.1-1.6,3.1-3.7,3.1C207.9,112.3,206.3,111.8,205.1,110.9"/>
		<path class="white" d="M221.4,106.5v-7.6h2.2v7.6c0,2.5,1.3,3.8,3.4,3.8c2.1,0,3.4-1.3,3.4-3.7v-7.6h2.2v7.5c0,3.9-2.2,5.9-5.7,5.9
			C223.6,112.3,221.4,110.4,221.4,106.5"/>
		<path class="white" d="M235.8,102.2h2.2v1.6c0.7-0.9,1.6-1.8,3.2-1.8c2.3,0,3.6,1.5,3.6,3.8v6.3h-2.2v-5.7c0-1.6-0.8-2.5-2.2-2.5
			c-1.4,0-2.3,0.9-2.3,2.5v5.6h-2.2V102.2z"/>
		<path class="white" d="M247.7,98.5h2.4v2.1h-2.4V98.5z M247.8,102.2h2.2v10h-2.2V102.2z"/>
		<polygon class="white" points="252.3,102.2 254.6,102.2 257.4,109.6 260.2,102.2 262.5,102.2 258.4,112.2 256.4,112.2 		"/>
		<path class="white" d="M263.5,107.2L263.5,107.2c0-2.9,2-5.2,4.9-5.2c3.1,0,4.7,2.5,4.7,5.3c0,0.2,0,0.4,0,0.6h-7.4
			c0.2,1.7,1.4,2.6,2.9,2.6c1.1,0,2-0.4,2.7-1.2l1.3,1.1c-1,1.1-2.3,1.9-4.1,1.9C265.7,112.4,263.5,110.3,263.5,107.2 M270.9,106.5
			c-0.2-1.5-1-2.7-2.6-2.7c-1.4,0-2.5,1.1-2.7,2.7H270.9z"/>
		<path class="white" d="M275.6,102.2h2.2v2.3c0.7-1.5,1.8-2.5,3.6-2.5v2.3h-0.1c-2,0-3.5,1.3-3.5,4v3.8h-2.2V102.2z"/>
		<path class="white" d="M282.7,110.9l1-1.5c1.1,0.8,2.2,1.2,3.3,1.2c1,0,1.6-0.5,1.6-1.1v0c0-0.8-1.1-1.1-2.3-1.4
			c-1.5-0.4-3.1-1-3.1-2.9v0c0-1.9,1.5-3,3.5-3c1.3,0,2.6,0.4,3.7,1.1l-0.9,1.6c-1-0.6-2-0.9-2.8-0.9c-0.9,0-1.5,0.4-1.5,1v0
			c0,0.7,1.1,1.1,2.3,1.5c1.5,0.5,3.1,1.1,3.1,2.9v0c0,2.1-1.6,3.1-3.7,3.1C285.5,112.3,283.9,111.8,282.7,110.9"/>
		<path class="white" d="M293.2,98.5h2.4v2.1h-2.4V98.5z M293.2,102.2h2.2v10h-2.2V102.2z"/>
		<path class="white" d="M299.1,109.4v-5.3h-1.3v-1.9h1.3v-2.8h2.2v2.8h2.7v1.9h-2.7v5c0,0.9,0.5,1.3,1.3,1.3c0.5,0,1-0.1,1.4-0.3v1.8
			c-0.6,0.3-1.2,0.5-2,0.5C300.3,112.3,299.1,111.6,299.1,109.4"/>
		<path class="white" d="M313.5,102.2h2.3l-4,10.2c-0.8,2.1-1.7,2.8-3.3,2.8c-0.9,0-1.6-0.2-2.3-0.6l0.7-1.7c0.4,0.2,0.9,0.4,1.4,0.4
			c0.7,0,1.1-0.3,1.5-1.2l-4.2-10h2.3l2.9,7.5L313.5,102.2z"/>
	</g>
</g>
<polygon id="logo" class="gold" points="69.2,39.5 39.5,59.3 39.5,65.9 69.2,65.9 39.5,85.7 39.5,92.3 69.2,92.3 39.5,112.1 
	39.5,118.6 89,118.6 118.6,98.9 118.6,92.3 89,92.3 118.6,72.5 118.6,65.9 89,65.9 118.6,46.2 118.6,39.5 "/>
</svg>
